<svg xmlns="http://www.w3.org/2000/svg" viewBox="0 0 200 200" width="100%" height="100%">
  <line x1="10" y1="180" x2="190" y2="180" stroke="#CFD8DC" stroke-width="4"></line>

  <g transform="translate(20, 20)">
    <rect x="0" y="0" width="80" height="50" rx="2" fill="#ECEFF1" stroke="#90A4AE" stroke-width="2"></rect>
    <rect x="3" y="3" width="74" height="44" fill="#011B47"></rect>
    <path d="M 18 3 L 18 47 M 33 3 L 33 47 M 48 3 L 48 47 M 63 3 L 63 47" stroke="#1565C0" stroke-width="1"></path>
    <path d="M 3 18 L 77 18 M 3 33 L 77 33" stroke="#1565C0" stroke-width="1"></path>
    <polygon points="3,3 30,3 3,25" fill="#ffffff" opacity="0.1"></polygon>
  </g>

  <rect x="110" y="25" width="30" height="40" rx="2" fill="#ECEFF1" stroke="#90A4AE" stroke-width="2"></rect>
  <rect x="115" y="30" width="20" height="8" fill="#B2DFDB"></rect>
  <path d="M 60 70 L 60 90 L 125 90 L 125 65" stroke="#F44336" stroke-width="2" fill="none"></path>

  <g transform="translate(60, 90)">
    <rect x="10" y="80" width="10" height="10" fill="#212121"></rect>
    <rect x="80" y="80" width="10" height="10" fill="#212121"></rect>
    <rect x="0" y="0" width="100" height="80" rx="4" fill="#FAFAFA" stroke="#B0BEC5" stroke-width="3"></rect>
    <g stroke="#90A4AE" stroke-width="2">
      <line x1="75" y1="10" x2="90" y2="10"></line><line x1="75" y1="20" x2="90" y2="20"></line>
      <line x1="75" y1="30" x2="90" y2="30"></line><line x1="75" y1="40" x2="90" y2="40"></line>
      <line x1="75" y1="50" x2="90" y2="50"></line><line x1="75" y1="60" x2="90" y2="60"></line>
    </g>
    <rect x="80" y="70" width="10" height="4" fill="#03A9F4"></rect> <circle cx="40" cy="40" r="30" fill="#ECEFF1" stroke="#B0BEC5" stroke-width="2"></circle>
    <g transform="translate(40,40)">
      <path d="M 0 0 L -5 -25 A 25 25 0 0 1 5 -25 Z" fill="#78909C"></path>
      <path d="M 0 0 L 23 12 A 25 25 0 0 1 18 20 Z" fill="#78909C"></path>
      <path d="M 0 0 L -18 20 A 25 25 0 0 1 -23 12 Z" fill="#78909C"></path>
      <circle cx="0" cy="0" r="6" fill="#455A64"></circle> </g>
    <circle cx="40" cy="40" r="20" fill="none" stroke="#CFD8DC" stroke-width="1.5"></circle>
    <circle cx="40" cy="40" r="10" fill="none" stroke="#CFD8DC" stroke-width="1.5"></circle>
    <path d="M 10 40 L 70 40 M 40 10 L 40 70 M 18 18 L 62 62 M 18 62 L 62 18" stroke="#CFD8DC" stroke-width="1.5"></path>
  </g>

  <g transform="translate(160, 120)">
    <path d="M 0 0 L 20 0 L 20 -20" stroke="#F44336" stroke-width="5" fill="none" stroke-linejoin="round"></path>
    <rect x="15" y="-30" width="10" height="10" fill="#E57373"></rect> <path d="M 0 20 L 30 20 L 30 -20" stroke="#2196F3" stroke-width="5" fill="none" stroke-linejoin="round"></path>
    <rect x="25" y="-30" width="10" height="10" fill="#64B5F6"></rect> </g>
</svg>